<svg xmlns="http://www.w3.org/2000/svg" viewBox="0 0 425.17 465"><defs><style>.cls-1{fill:#f15a24;}.cls-2{fill:#036;}.cls-3{fill:none;}.cls-4{fill:#606060;}</style></defs><g id="Camada_2" data-name="Camada 2"><g id="Camada_3" data-name="Camada 3"><path class="cls-1" d="M315.12,212.77c-.63-1.06-1.3-2.1-2-3.1-.2-.3-.41-.6-.64-.9l-.08-.13a53,53,0,0,0-14.52-13.56c-.57-.36-1.16-.71-1.75-1.05a51,51,0,0,0-6.6-3.23A52.44,52.44,0,0,0,269.72,187h-.52a52.82,52.82,0,0,0-44.76,80c0,.08.1.16.15.24.76,1.27,1.58,2.49,2.45,3.68a52.82,52.82,0,0,0,85,.47c1-1.33,1.94-2.72,2.81-4.15a52.87,52.87,0,0,0,.26-54.45Zm-25.34,53.82A33.48,33.48,0,0,1,236.24,240V240a1.15,1.15,0,0,1,0-.19,33.49,33.49,0,0,1,33-33.48h.52a33.27,33.27,0,0,1,9.79,1.46h0l.07,0c.83.26,1.66.54,2.47.86a33.51,33.51,0,0,1,7.7,57.95Z"/><path class="cls-2" d="M70.76,0l9.06,7.36a37.41,37.41,0,0,0-11.9,24.36c-1.22,17.44,11,28.67,12.47,30L70.76,68.5C68.67,66.49,54.9,52.85,56,31.72,57,13.66,68.18,2.45,70.76,0Z"/><path class="cls-2" d="M84.65,11.12l6.12,5a25.25,25.25,0,0,0-8,16.45c-.82,11.78,7.4,19.36,8.42,20.28l-6.5,4.56C83.24,56,73.94,46.81,74.7,32.54A32.59,32.59,0,0,1,84.65,11.12Z"/><path class="cls-2" d="M131.87,0l-9.06,7.36a37.41,37.41,0,0,1,11.9,24.36c1.22,17.44-11,28.67-12.47,30l9.63,6.75c2.09-2,15.86-15.65,14.73-36.78C145.64,13.66,134.45,2.45,131.87,0Z"/><path class="cls-2" d="M118,11.12l-6.12,5a25.25,25.25,0,0,1,8,16.45c.82,11.78-7.39,19.36-8.42,20.28l6.5,4.56c1.41-1.36,10.71-10.57,10-24.84A32.59,32.59,0,0,0,118,11.12Z"/><circle class="cls-1" cx="101.35" cy="34.66" r="7.93"/><path class="cls-2" d="M137.83,82.14V93.63H119c-4,0-7.78,2-7.78,5.83l.33,47.62a7.11,7.11,0,0,0,7.24,7h19v119.1H80.62a8.11,8.11,0,0,1-8.25-8V82.14a8.11,8.11,0,0,1,8.25-8h48.95A8.12,8.12,0,0,1,137.83,82.14Z"/><path class="cls-2" d="M237.64,82.17v130.7a41.75,41.75,0,0,0-9.5,26.58v.63a41.12,41.12,0,0,0,9.5,26.32v7.4H170.88V82.17a8.19,8.19,0,0,1,8.38-8h50A8.2,8.2,0,0,1,237.64,82.17Z"/><path class="cls-2" d="M358.79,148.07l-9.47-7.78-39.48-32.43h0l-.75-.62a8.15,8.15,0,0,0-1.29,1h0a7.72,7.72,0,0,0-2.49,5.66v90.46l.34.26.71.53a39,39,0,0,1-.74,63,8,8,0,0,0,7.75,5.68h47.79a8,8,0,0,0,8.07-7.82V156.62ZM362.72,262a3.43,3.43,0,0,1-3.42,3.43H346.06a3.44,3.44,0,0,1-3.43-3.43v-6.1a3.43,3.43,0,0,1,3.43-3.43H359.3a3.42,3.42,0,0,1,3.42,3.43Z"/><path class="cls-2" d="M363.37,136.9c-1.19,2-3.85,3.39-6.94,3.39H170.88v-33H318.1a59,59,0,0,1,20.4,3.94s.06,0,.08,0a50.26,50.26,0,0,1,21.09,16.69s0,0,0,0A29.61,29.61,0,0,1,363.37,136.9Z"/><path class="cls-2" d="M369.21,156.62v.2A47.85,47.85,0,0,1,365,176.59,50.66,50.66,0,0,1,336.73,203c-.2.07-.38.15-.58.21-1,.38-2,.72-3.08,1a53.16,53.16,0,0,1-26.73.92l-.71-.16c-.11-.08-2.42-.42-2.53-.5V140.29H269.58a50.84,50.84,0,0,1,38.15-32.07h.06c.67-.13,1.35-.25,2-.35h0a53.68,53.68,0,0,1,7.33-.62h0A61.22,61.22,0,0,1,338,111.18l.08,0a51.1,51.1,0,0,1,21.5,16.69l0,0a48.47,48.47,0,0,1,8.79,20.13l.06.31A49.7,49.7,0,0,1,369.21,156.62Z"/><path class="cls-2" d="M326.86,205.65c-.79-1.32-1.62-2.62-2.5-3.88-.25-.37-.52-.75-.79-1.13l-.11-.15a66.53,66.53,0,0,0-18.17-17q-1.08-.67-2.19-1.32a66.58,66.58,0,0,0-8.27-4,65.67,65.67,0,0,0-24.79-4.8h-.64a66.12,66.12,0,0,0-56,100.15c.06.1.12.2.19.3.95,1.59,2,3.12,3.07,4.61A66.12,66.12,0,0,0,323,279q1.86-2.52,3.5-5.2a66.13,66.13,0,0,0,.33-68.15ZM295.15,273a41.9,41.9,0,0,1-67-33.24v-.32a41.89,41.89,0,0,1,41.26-41.9H270a41.71,41.71,0,0,1,12.26,1.83l0,0,.08,0q1.57.48,3.09,1.08A41.92,41.92,0,0,1,295.15,273Z"/><path class="cls-2" d="M368.17,173.35v27.29H286.31c-1.27-.46-2.57-.87-3.89-1.23l-.08,0,0,0A41.71,41.71,0,0,0,270,197.54h-.64v-24.2h98.77Z"/><line class="cls-3" x1="305.29" y1="155.97" x2="305.29" y2="151.36"/><path class="cls-2" d="M368.47,148.38l-.06-.31H336.15V273.8h25a8,8,0,0,0,8.07-7.82V156.62A49.7,49.7,0,0,0,368.47,148.38ZM362.72,262a3.43,3.43,0,0,1-3.42,3.43H346.06a3.44,3.44,0,0,1-3.43-3.43v-6.1a3.43,3.43,0,0,1,3.43-3.43H359.3a3.42,3.42,0,0,1,3.42,3.43Z"/><rect class="cls-2" x="117.74" y="107.24" width="86.2" height="33.05" rx="8.32"/><path class="cls-1" d="M141.94,350.37a59.25,59.25,0,0,0-21.46-27q-14.48-9.92-36.79-9.92a72.54,72.54,0,0,0-27,5.17,50.75,50.75,0,0,0-21.33,15.52V265.38H.4Q.21,365.19,0,465H34.35q.34-9.36.69-18.73a53.36,53.36,0,0,0,13.87,11.18,54.89,54.89,0,0,0,15.9,5.87A83.31,83.31,0,0,0,81.4,465q23.19,0,38.07-10.07a60.67,60.67,0,0,0,22.19-27.26Q149,410.5,149,389T141.94,350.37ZM78.75,438.43a47.64,47.64,0,0,1-21.22-90.29c.5-.24,1-.49,1.53-.72l.24-.12a47.64,47.64,0,1,1,19.45,91.13Z"/><path class="cls-1" d="M224.23,465q-32.62,0-49.94-16.54T157,398V315.28h34.92v80.47a57.63,57.63,0,0,0,3.29,20.47,26.23,26.23,0,0,0,10.59,13.31q7.3,4.64,18.46,4.63,12,0,19-4.91a26,26,0,0,0,9.87-13.59A63.55,63.55,0,0,0,256,395.75V315.28h34.92V398q0,34.77-17.61,50.89T224.23,465Z"/><path class="cls-1" d="M362.48,465a105.77,105.77,0,0,1-21.61-2.23,72.56,72.56,0,0,1-20.18-7.38A46,46,0,0,1,305,441.32q-6.3-8.91-8.3-22.29h35.21a21.39,21.39,0,0,0,7.29,9.89,33.86,33.86,0,0,0,11.74,5.57,50.89,50.89,0,0,0,13.31,1.81,75.14,75.14,0,0,0,8.73-.55,34.45,34.45,0,0,0,8.87-2.23,16.24,16.24,0,0,0,6.73-4.88,13.14,13.14,0,0,0,2.58-8.5,10.87,10.87,0,0,0-2.87-7.94,20.78,20.78,0,0,0-7.72-4.73,62.54,62.54,0,0,0-11.74-2.93q-12.31-2.51-26.33-5.43a74.24,74.24,0,0,1-24.33-9.34,32.81,32.81,0,0,1-7.45-5.85,34,34,0,0,1-5.29-7.38,33.34,33.34,0,0,1-3.15-8.78,49.61,49.61,0,0,1-1-10.31q0-11.7,5-19.92a39.65,39.65,0,0,1,13.45-13.37A64.57,64.57,0,0,1,339,316.5,98.57,98.57,0,0,1,361.34,314a79.36,79.36,0,0,1,28.05,4.73,51.3,51.3,0,0,1,21,14.49q8.43,9.77,10.16,24.8h-33.2q-1.44-7-8.74-11.14t-18.46-4.18a52.29,52.29,0,0,0-8.3.69,39.58,39.58,0,0,0-8.16,2.23,14.88,14.88,0,0,0-6.29,4.6,11.67,11.67,0,0,0-2.44,7.52,12.34,12.34,0,0,0,2.15,7.25,16.19,16.19,0,0,0,6.58,5.15,52,52,0,0,0,10.45,3.48q9.74,2,20.32,3.9t18.32,3.9a63.32,63.32,0,0,1,16.61,7.11,32.84,32.84,0,0,1,11.59,12q4.14,7.38,4.15,18.81,0,13.37-5.58,22.29a39.64,39.64,0,0,1-14.74,13.93,70.89,70.89,0,0,1-20.33,7.24A112,112,0,0,1,362.48,465Z"/><path class="cls-4" d="M59.31,347.3l-.26.12Z"/></g></g></svg>